<svg width="1920" height="979" xmlns="http://www.w3.org/2000/svg"><g><path d="M-60.85889909416437,-40.10775687173009L-133.9801284391433,326.39495423063636L-48.07037377730012,52.43009607307613Z" fill="#e64f37" stroke="#e64f37" fill-opacity="1" stroke-opacity="1"/><path d="M-60.85889909416437,-40.10775687173009L-48.07037377730012,52.43009607307613L91.84311336837709,40.05115323700011Z" fill="#eb3a2d" stroke="#eb3a2d" fill-opacity="1" stroke-opacity="1"/><path d="M-60.85889909416437,-40.10775687173009L91.84311336837709,40.05115323700011L94.29370902478695,-85.9690956864506Z" fill="#ee3129" stroke="#ee3129" fill-opacity="1" stroke-opacity="1"/><path d="M-60.85889909416437,-40.10775687173009L94.29370902478695,-85.9690956864506L195.06503608077765,-120.26749698445201Z" fill="#f02423" stroke="#f02423" fill-opacity="1" stroke-opacity="1"/><path d="M94.29370902478695,-85.9690956864506L91.84311336837709,40.05115323700011L195.06503608077765,-120.26749698445201Z" fill="#f4342b" stroke="#f4342b" fill-opacity="1" stroke-opacity="1"/><path d="M195.06503608077765,-120.26749698445201L91.84311336837709,40.05115323700011L257.12100053206086,97.34743966720998Z" fill="#f85138" stroke="#f85138" fill-opacity="1" stroke-opacity="1"/><path d="M195.06503608077765,-120.26749698445201L257.12100053206086,97.34743966720998L339.93039610795677,-108.4813645016402Z" fill="#fb4c35" stroke="#fb4c35" fill-opacity="1" stroke-opacity="1"/><path d="M195.06503608077765,-120.26749698445201L339.93039610795677,-108.4813645016402L583.1959574203938,-118.0445328913629Z" fill="#fd4f32" stroke="#fd4f32" fill-opacity="1" stroke-opacity="1"/><path d="M195.06503608077765,-120.26749698445201L583.1959574203938,-118.0445328913629L1126.4556737802923,-132.45927572250366Z" fill="#ff704b" stroke="#ff704b" fill-opacity="1" stroke-opacity="1"/><path d="M339.93039610795677,-108.4813645016402L257.12100053206086,97.34743966720998L372.64085026457906,49.487323835492134Z" fill="#fc6842" stroke="#fc6842" fill-opacity="1" stroke-opacity="1"/><path d="M339.93039610795677,-108.4813645016402L372.64085026457906,49.487323835492134L583.1959574203938,-118.0445328913629Z" fill="#fe603f" stroke="#fe603f" fill-opacity="1" stroke-opacity="1"/><path d="M583.1959574203938,-118.0445328913629L372.64085026457906,49.487323835492134L525.2855175733566,110.73871158063412Z" fill="#fe8051" stroke="#fe8051" fill-opacity="1" stroke-opacity="1"/><path d="M583.1959574203938,-118.0445328913629L525.2855175733566,110.73871158063412L701.8829990364611,31.251762276515365Z" fill="#ff8b5c" stroke="#ff8b5c" fill-opacity="1" stroke-opacity="1"/><path d="M583.1959574203938,-118.0445328913629L701.8829990364611,31.251762276515365L723.5625095106661,-107.78511861339211Z" fill="#ff7959" stroke="#ff7959" fill-opacity="1" stroke-opacity="1"/><path d="M583.1959574203938,-118.0445328913629L723.5625095106661,-107.78511861339211L1126.4556737802923,-132.45927572250366Z" fill="#ff7d60" stroke="#ff7d60" fill-opacity="1" stroke-opacity="1"/><path d="M723.5625095106661,-107.78511861339211L701.8829990364611,31.251762276515365L780.8818810153753,-98.6992299836129Z" fill="#ff8061" stroke="#ff8061" fill-opacity="1" stroke-opacity="1"/><path d="M723.5625095106661,-107.78511861339211L780.8818810153753,-98.6992299836129L1126.4556737802923,-132.45927572250366Z" fill="#fe7f68" stroke="#fe7f68" fill-opacity="1" stroke-opacity="1"/><path d="M780.8818810153753,-98.6992299836129L701.8829990364611,31.251762276515365L856.6292072832584,94.45974851958454Z" fill="#ff9a70" stroke="#ff9a70" fill-opacity="1" stroke-opacity="1"/><path d="M780.8818810153753,-98.6992299836129L856.6292072832584,94.45974851958454L1001.3729474041611,-76.8850385863334Z" fill="#fd9376" stroke="#fd9376" fill-opacity="1" stroke-opacity="1"/><path d="M780.8818810153753,-98.6992299836129L1001.3729474041611,-76.8850385863334L1126.4556737802923,-132.45927572250366Z" fill="#f77c76" stroke="#f77c76" fill-opacity="1" stroke-opacity="1"/><path d="M1001.3729474041611,-76.8850385863334L856.6292072832584,94.45974851958454L1007.8771596774459,131.0274220816791Z" fill="#f8aa8c" stroke="#f8aa8c" fill-opacity="1" stroke-opacity="1"/><path d="M1001.3729474041611,-76.8850385863334L1007.8771596774459,131.0274220816791L1085.1641112752259,96.3435456622392Z" fill="#f2a897" stroke="#f2a897" fill-opacity="1" stroke-opacity="1"/><path d="M1001.3729474041611,-76.8850385863334L1085.1641112752259,96.3435456622392L1126.4556737802923,-132.45927572250366Z" fill="#ef898d" stroke="#ef898d" fill-opacity="1" stroke-opacity="1"/><path d="M1126.4556737802923,-132.45927572250366L1085.1641112752259,96.3435456622392L1277.1210670284927,83.04259750060737Z" fill="#e49592" stroke="#e49592" fill-opacity="1" stroke-opacity="1"/><path d="M1126.4556737802923,-132.45927572250366L1277.1210670284927,83.04259750060737L1319.5785874128342,-78.2888662442565Z" fill="#da7d87" stroke="#da7d87" fill-opacity="1" stroke-opacity="1"/><path d="M1126.4556737802923,-132.45927572250366L1319.5785874128342,-78.2888662442565L1628.4995308890939,-127.2068303078413Z" fill="#cb6576" stroke="#cb6576" fill-opacity="1" stroke-opacity="1"/><path d="M1319.5785874128342,-78.2888662442565L1277.1210670284927,83.04259750060737L1393.644087491557,110.95514299347997Z" fill="#cf918f" stroke="#cf918f" fill-opacity="1" stroke-opacity="1"/><path d="M1319.5785874128342,-78.2888662442565L1393.644087491557,110.95514299347997L1448.5830413829535,-62.50037530437112Z" fill="#c77b84" stroke="#c77b84" fill-opacity="1" stroke-opacity="1"/><path d="M1319.5785874128342,-78.2888662442565L1448.5830413829535,-62.50037530437112L1628.4995308890939,-127.2068303078413Z" fill="#bd5a73" stroke="#bd5a73" fill-opacity="1" stroke-opacity="1"/><path d="M1448.5830413829535,-62.50037530437112L1393.644087491557,110.95514299347997L1581.2061250861734,93.83884250186384Z" fill="#bc8588" stroke="#bc8588" fill-opacity="1" stroke-opacity="1"/><path d="M1448.5830413829535,-62.50037530437112L1581.2061250861734,93.83884250186384L1628.4995308890939,-127.2068303078413Z" fill="#b36177" stroke="#b36177" fill-opacity="1" stroke-opacity="1"/><path d="M1628.4995308890939,-127.2068303078413L1581.2061250861734,93.83884250186384L1688.2353637274355,36.48615111596882Z" fill="#aa6176" stroke="#aa6176" fill-opacity="1" stroke-opacity="1"/><path d="M1628.4995308890939,-127.2068303078413L1688.2353637274355,36.48615111596882L1777.5650347117335,-49.26800552755594Z" fill="#a3496a" stroke="#a3496a" fill-opacity="1" stroke-opacity="1"/><path d="M1628.4995308890939,-127.2068303078413L1777.5650347117335,-49.26800552755594L1823.776305578649,-62.76713842526078Z" fill="#9e3762" stroke="#9e3762" fill-opacity="1" stroke-opacity="1"/><path d="M1628.4995308890939,-127.2068303078413L1823.776305578649,-62.76713842526078L1972.6471394486725,-70.65055690705776Z" fill="#972d5d" stroke="#972d5d" fill-opacity="1" stroke-opacity="1"/><path d="M1777.5650347117335,-49.26800552755594L1688.2353637274355,36.48615111596882L1907.768791448325,60.78986741602421Z" fill="#99526e" stroke="#99526e" fill-opacity="1" stroke-opacity="1"/><path d="M1777.5650347117335,-49.26800552755594L1907.768791448325,60.78986741602421L1823.776305578649,-62.76713842526078Z" fill="#944166" stroke="#944166" fill-opacity="1" stroke-opacity="1"/><path d="M1823.776305578649,-62.76713842526078L1907.768791448325,60.78986741602421L1972.6471394486725,-70.65055690705776Z" fill="#8d3660" stroke="#8d3660" fill-opacity="1" stroke-opacity="1"/><path d="M1972.6471394486725,-70.65055690705776L1907.768791448325,60.78986741602421L2056.6364685818553,116.53036141768098Z" fill="#844064" stroke="#844064" fill-opacity="1" stroke-opacity="1"/><path d="M-48.07037377730012,52.43009607307613L-133.9801284391433,326.39495423063636L-48.99475350044668,236.07075344771147Z" fill="#e67046" stroke="#e67046" fill-opacity="1" stroke-opacity="1"/><path d="M-48.07037377730012,52.43009607307613L-48.99475350044668,236.07075344771147L71.26231011003256,201.81925336830318Z" fill="#eb6c44" stroke="#eb6c44" fill-opacity="1" stroke-opacity="1"/><path d="M-48.07037377730012,52.43009607307613L71.26231011003256,201.81925336830318L91.84311336837709,40.05115323700011Z" fill="#ee5b3d" stroke="#ee5b3d" fill-opacity="1" stroke-opacity="1"/><path d="M91.84311336837709,40.05115323700011L71.26231011003256,201.81925336830318L257.12100053206086,97.34743966720998Z" fill="#f56f45" stroke="#f56f45" fill-opacity="1" stroke-opacity="1"/><path d="M257.12100053206086,97.34743966720998L71.26231011003256,201.81925336830318L251.4912148565054,204.62741036899388Z" fill="#f88a52" stroke="#f88a52" fill-opacity="1" stroke-opacity="1"/><path d="M257.12100053206086,97.34743966720998L251.4912148565054,204.62741036899388L342.3551743850112,217.99410874955356Z" fill="#fb9959" stroke="#fb9959" fill-opacity="1" stroke-opacity="1"/><path d="M257.12100053206086,97.34743966720998L342.3551743850112,217.99410874955356L372.64085026457906,49.487323835492134Z" fill="#fc8d54" stroke="#fc8d54" fill-opacity="1" stroke-opacity="1"/><path d="M372.64085026457906,49.487323835492134L342.3551743850112,217.99410874955356L525.2855175733566,110.73871158063412Z" fill="#fe9c5b" stroke="#fe9c5b" fill-opacity="1" stroke-opacity="1"/><path d="M525.2855175733566,110.73871158063412L342.3551743850112,217.99410874955356L525.56132376194,278.18669836968184Z" fill="#febe6c" stroke="#febe6c" fill-opacity="1" stroke-opacity="1"/><path d="M525.2855175733566,110.73871158063412L525.56132376194,278.18669836968184L691.4586106035858,264.81403240934014Z" fill="#ffd17b" stroke="#ffd17b" fill-opacity="1" stroke-opacity="1"/><path d="M525.2855175733566,110.73871158063412L691.4586106035858,264.81403240934014L701.8829990364611,31.251762276515365Z" fill="#ffbb75" stroke="#ffbb75" fill-opacity="1" stroke-opacity="1"/><path d="M701.8829990364611,31.251762276515365L691.4586106035858,264.81403240934014L782.3603862337768,256.30379824899137Z" fill="#ffd286" stroke="#ffd286" fill-opacity="1" stroke-opacity="1"/><path d="M701.8829990364611,31.251762276515365L782.3603862337768,256.30379824899137L856.6292072832584,94.45974851958454Z" fill="#ffc283" stroke="#ffc283" fill-opacity="1" stroke-opacity="1"/><path d="M856.6292072832584,94.45974851958454L782.3603862337768,256.30379824899137L952.5510270707309,171.34780559688807Z" fill="#fed794" stroke="#fed794" fill-opacity="1" stroke-opacity="1"/><path d="M856.6292072832584,94.45974851958454L952.5510270707309,171.34780559688807L1007.8771596774459,131.0274220816791Z" fill="#f9c797" stroke="#f9c797" fill-opacity="1" stroke-opacity="1"/><path d="M1007.8771596774459,131.0274220816791L952.5510270707309,171.34780559688807L1123.888190081343,283.78162829205394Z" fill="#f3daad" stroke="#f3daad" fill-opacity="1" stroke-opacity="1"/><path d="M1007.8771596774459,131.0274220816791L1123.888190081343,283.78162829205394L1085.1641112752259,96.3435456622392Z" fill="#efd0ae" stroke="#efd0ae" fill-opacity="1" stroke-opacity="1"/><path d="M1085.1641112752259,96.3435456622392L1123.888190081343,283.78162829205394L1267.8163532540202,245.54361543618143Z" fill="#e4d9b1" stroke="#e4d9b1" fill-opacity="1" stroke-opacity="1"/><path d="M1085.1641112752259,96.3435456622392L1267.8163532540202,245.54361543618143L1277.1210670284927,83.04259750060737Z" fill="#debea5" stroke="#debea5" fill-opacity="1" stroke-opacity="1"/><path d="M1277.1210670284927,83.04259750060737L1267.8163532540202,245.54361543618143L1393.644087491557,110.95514299347997Z" fill="#d1b8a1" stroke="#d1b8a1" fill-opacity="1" stroke-opacity="1"/><path d="M1393.644087491557,110.95514299347997L1267.8163532540202,245.54361543618143L1454.7030597366393,223.66231307387352Z" fill="#c9c2a5" stroke="#c9c2a5" fill-opacity="1" stroke-opacity="1"/><path d="M1393.644087491557,110.95514299347997L1454.7030597366393,223.66231307387352L1581.2061250861734,93.83884250186384Z" fill="#bca597" stroke="#bca597" fill-opacity="1" stroke-opacity="1"/><path d="M1581.2061250861734,93.83884250186384L1454.7030597366393,223.66231307387352L1621.5823053382337,274.8121822066605Z" fill="#b3af9b" stroke="#b3af9b" fill-opacity="1" stroke-opacity="1"/><path d="M1581.2061250861734,93.83884250186384L1621.5823053382337,274.8121822066605L1769.6067551895976,186.96180196478963Z" fill="#a89d92" stroke="#a89d92" fill-opacity="1" stroke-opacity="1"/><path d="M1581.2061250861734,93.83884250186384L1769.6067551895976,186.96180196478963L1688.2353637274355,36.48615111596882Z" fill="#a57e84" stroke="#a57e84" fill-opacity="1" stroke-opacity="1"/><path d="M1688.2353637274355,36.48615111596882L1769.6067551895976,186.96180196478963L1907.768791448325,60.78986741602421Z" fill="#996d7b" stroke="#996d7b" fill-opacity="1" stroke-opacity="1"/><path d="M1907.768791448325,60.78986741602421L1769.6067551895976,186.96180196478963L1970.9567207470536,194.65055116452277Z" fill="#8f727c" stroke="#8f727c" fill-opacity="1" stroke-opacity="1"/><path d="M1907.768791448325,60.78986741602421L1970.9567207470536,194.65055116452277L2056.6364685818553,116.53036141768098Z" fill="#845e72" stroke="#845e72" fill-opacity="1" stroke-opacity="1"/><path d="M2056.6364685818553,116.53036141768098L1970.9567207470536,194.65055116452277L2012.2998856846243,404.2261043563485Z" fill="#807f84" stroke="#807f84" fill-opacity="1" stroke-opacity="1"/><path d="M2056.6364685818553,116.53036141768098L2012.2998856846243,404.2261043563485L2054.3387305084616,579.7012561652809Z" fill="#808ea4" stroke="#808ea4" fill-opacity="1" stroke-opacity="1"/><path d="M-48.99475350044668,236.07075344771147L-133.9801284391433,326.39495423063636L29.785650372505188,345.03191099502146Z" fill="#e88b60" stroke="#e88b60" fill-opacity="1" stroke-opacity="1"/><path d="M-48.99475350044668,236.07075344771147L29.785650372505188,345.03191099502146L71.26231011003256,201.81925336830318Z" fill="#ec8c5a" stroke="#ec8c5a" fill-opacity="1" stroke-opacity="1"/><path d="M71.26231011003256,201.81925336830318L29.785650372505188,345.03191099502146L167.9234983306378,323.7192846927792Z" fill="#f19d66" stroke="#f19d66" fill-opacity="1" stroke-opacity="1"/><path d="M71.26231011003256,201.81925336830318L167.9234983306378,323.7192846927792L251.4912148565054,204.62741036899388Z" fill="#f69d5f" stroke="#f69d5f" fill-opacity="1" stroke-opacity="1"/><path d="M251.4912148565054,204.62741036899388L167.9234983306378,323.7192846927792L342.3551743850112,217.99410874955356Z" fill="#fbab66" stroke="#fbab66" fill-opacity="1" stroke-opacity="1"/><path d="M342.3551743850112,217.99410874955356L167.9234983306378,323.7192846927792L373.45861558802426,405.0682854652405Z" fill="#fbc07a" stroke="#fbc07a" fill-opacity="1" stroke-opacity="1"/><path d="M342.3551743850112,217.99410874955356L373.45861558802426,405.0682854652405L525.56132376194,278.18669836968184Z" fill="#fecf7f" stroke="#fecf7f" fill-opacity="1" stroke-opacity="1"/><path d="M525.56132376194,278.18669836968184L373.45861558802426,405.0682854652405L489.27772292867303,417.7107859030366Z" fill="#fedb95" stroke="#fedb95" fill-opacity="1" stroke-opacity="1"/><path d="M525.56132376194,278.18669836968184L489.27772292867303,417.7107859030366L629.73184148781,360.1853447780013Z" fill="#ffe59b" stroke="#ffe59b" fill-opacity="1" stroke-opacity="1"/><path d="M525.56132376194,278.18669836968184L629.73184148781,360.1853447780013L691.4586106035858,264.81403240934014Z" fill="#ffe795" stroke="#ffe795" fill-opacity="1" stroke-opacity="1"/><path d="M691.4586106035858,264.81403240934014L629.73184148781,360.1853447780013L833.4539264626801,393.70689667761326Z" fill="#fff5aa" stroke="#fff5aa" fill-opacity="1" stroke-opacity="1"/><path d="M691.4586106035858,264.81403240934014L833.4539264626801,393.70689667761326L782.3603862337768,256.30379824899137Z" fill="#fff5a7" stroke="#fff5a7" fill-opacity="1" stroke-opacity="1"/><path d="M782.3603862337768,256.30379824899137L833.4539264626801,393.70689667761326L929.8229934833944,346.43577156588435Z" fill="#ffffb7" stroke="#ffffb7" fill-opacity="1" stroke-opacity="1"/><path d="M782.3603862337768,256.30379824899137L929.8229934833944,346.43577156588435L952.5510270707309,171.34780559688807Z" fill="#fdefa8" stroke="#fdefa8" fill-opacity="1" stroke-opacity="1"/><path d="M952.5510270707309,171.34780559688807L929.8229934833944,346.43577156588435L1123.888190081343,283.78162829205394Z" fill="#f4eeba" stroke="#f4eeba" fill-opacity="1" stroke-opacity="1"/><path d="M1123.888190081343,283.78162829205394L929.8229934833944,346.43577156588435L1025.924301110208,470.14692968688905Z" fill="#f3fad7" stroke="#f3fad7" fill-opacity="1" stroke-opacity="1"/><path d="M1123.888190081343,283.78162829205394L1025.924301110208,470.14692968688905L1170.882012275979,322.47755798511207Z" fill="#ebf7d9" stroke="#ebf7d9" fill-opacity="1" stroke-opacity="1"/><path d="M1123.888190081343,283.78162829205394L1170.882012275979,322.47755798511207L1267.8163532540202,245.54361543618143Z" fill="#e1e8c3" stroke="#e1e8c3" fill-opacity="1" stroke-opacity="1"/><path d="M1267.8163532540202,245.54361543618143L1170.882012275979,322.47755798511207L1297.056958694011,342.5391244981438Z" fill="#dae9c6" stroke="#dae9c6" fill-opacity="1" stroke-opacity="1"/><path d="M1267.8163532540202,245.54361543618143L1297.056958694011,342.5391244981438L1454.7030597366393,223.66231307387352Z" fill="#cedab9" stroke="#cedab9" fill-opacity="1" stroke-opacity="1"/><path d="M1454.7030597366393,223.66231307387352L1297.056958694011,342.5391244981438L1449.1694924980402,406.2028141412884Z" fill="#c6dfc3" stroke="#c6dfc3" fill-opacity="1" stroke-opacity="1"/><path d="M1454.7030597366393,223.66231307387352L1449.1694924980402,406.2028141412884L1617.481921557337,366.03458994068205Z" fill="#b8d4bf" stroke="#b8d4bf" fill-opacity="1" stroke-opacity="1"/><path d="M1454.7030597366393,223.66231307387352L1617.481921557337,366.03458994068205L1621.5823053382337,274.8121822066605Z" fill="#b2c4b0" stroke="#b2c4b0" fill-opacity="1" stroke-opacity="1"/><path d="M1621.5823053382337,274.8121822066605L1617.481921557337,366.03458994068205L1705.526111992076,320.7700070925057Z" fill="#a9c0b3" stroke="#a9c0b3" fill-opacity="1" stroke-opacity="1"/><path d="M1621.5823053382337,274.8121822066605L1705.526111992076,320.7700070925057L1769.6067551895976,186.96180196478963Z" fill="#a3ada0" stroke="#a3ada0" fill-opacity="1" stroke-opacity="1"/><path d="M1769.6067551895976,186.96180196478963L1705.526111992076,320.7700070925057L1869.7614989150316,265.31867424957454Z" fill="#9aa199" stroke="#9aa199" fill-opacity="1" stroke-opacity="1"/><path d="M1769.6067551895976,186.96180196478963L1869.7614989150316,265.31867424957454L1970.9567207470536,194.65055116452277Z" fill="#908c88" stroke="#908c88" fill-opacity="1" stroke-opacity="1"/><path d="M1869.7614989150316,265.31867424957454L1705.526111992076,320.7700070925057L1895.1746234949678,386.3525961712003Z" fill="#95aaa8" stroke="#95aaa8" fill-opacity="1" stroke-opacity="1"/><path d="M1869.7614989150316,265.31867424957454L1895.1746234949678,386.3525961712003L2012.2998856846243,404.2261043563485Z" fill="#8a9da8" stroke="#8a9da8" fill-opacity="1" stroke-opacity="1"/><path d="M1869.7614989150316,265.31867424957454L2012.2998856846243,404.2261043563485L1970.9567207470536,194.65055116452277Z" fill="#879296" stroke="#879296" fill-opacity="1" stroke-opacity="1"/><path d="M-133.9801284391433,326.39495423063636L-100.03874737769365,717.0399564597756L-24.91057771258056,577.0559078268707Z" fill="#e58b8d" stroke="#e58b8d" fill-opacity="1" stroke-opacity="1"/><path d="M-133.9801284391433,326.39495423063636L-24.91057771258056,577.0559078268707L29.785650372505188,345.03191099502146Z" fill="#e8927e" stroke="#e8927e" fill-opacity="1" stroke-opacity="1"/><path d="M29.785650372505188,345.03191099502146L-24.91057771258056,577.0559078268707L67.69205429591238,548.4651712048799Z" fill="#ed9b8e" stroke="#ed9b8e" fill-opacity="1" stroke-opacity="1"/><path d="M29.785650372505188,345.03191099502146L67.69205429591238,548.4651712048799L167.9234983306378,323.7192846927792Z" fill="#f1a484" stroke="#f1a484" fill-opacity="1" stroke-opacity="1"/><path d="M167.9234983306378,323.7192846927792L67.69205429591238,548.4651712048799L255.01138105988503,539.0253273490816Z" fill="#f6af95" stroke="#f6af95" fill-opacity="1" stroke-opacity="1"/><path d="M167.9234983306378,323.7192846927792L255.01138105988503,539.0253273490816L373.45861558802426,405.0682854652405Z" fill="#fbbe94" stroke="#fbbe94" fill-opacity="1" stroke-opacity="1"/><path d="M373.45861558802426,405.0682854652405L255.01138105988503,539.0253273490816L341.5231578424573,577.2603286709636Z" fill="#fcc7a4" stroke="#fcc7a4" fill-opacity="1" stroke-opacity="1"/><path d="M373.45861558802426,405.0682854652405L341.5231578424573,577.2603286709636L489.27772292867303,417.7107859030366Z" fill="#fed3a5" stroke="#fed3a5" fill-opacity="1" stroke-opacity="1"/><path d="M489.27772292867303,417.7107859030366L341.5231578424573,577.2603286709636L521.7832062207162,569.0796444565058Z" fill="#fedab0" stroke="#fedab0" fill-opacity="1" stroke-opacity="1"/><path d="M489.27772292867303,417.7107859030366L521.7832062207162,569.0796444565058L629.73184148781,360.1853447780013Z" fill="#ffe5b1" stroke="#ffe5b1" fill-opacity="1" stroke-opacity="1"/><path d="M629.73184148781,360.1853447780013L521.7832062207162,569.0796444565058L706.0249245911837,567.5243785511702Z" fill="#ffedc0" stroke="#ffedc0" fill-opacity="1" stroke-opacity="1"/><path d="M629.73184148781,360.1853447780013L706.0249245911837,567.5243785511702L833.4539264626801,393.70689667761326Z" fill="#fff6c4" stroke="#fff6c4" fill-opacity="1" stroke-opacity="1"/><path d="M833.4539264626801,393.70689667761326L706.0249245911837,567.5243785511702L865.5385375767946,539.3389013037086Z" fill="#fffbd4" stroke="#fffbd4" fill-opacity="1" stroke-opacity="1"/><path d="M833.4539264626801,393.70689667761326L865.5385375767946,539.3389013037086L929.8229934833944,346.43577156588435Z" fill="#feffd3" stroke="#feffd3" fill-opacity="1" stroke-opacity="1"/><path d="M929.8229934833944,346.43577156588435L865.5385375767946,539.3389013037086L1025.924301110208,470.14692968688905Z" fill="#f9fddf" stroke="#f9fddf" fill-opacity="1" stroke-opacity="1"/><path d="M1170.882012275979,322.47755798511207L1025.924301110208,470.14692968688905L1155.3316168114543,492.48961980454624Z" fill="#e9f6eb" stroke="#e9f6eb" fill-opacity="1" stroke-opacity="1"/><path d="M1170.882012275979,322.47755798511207L1155.3316168114543,492.48961980454624L1297.056958694011,342.5391244981438Z" fill="#def1dd" stroke="#def1dd" fill-opacity="1" stroke-opacity="1"/><path d="M1297.056958694011,342.5391244981438L1155.3316168114543,492.48961980454624L1324.6286882087588,528.2085744012147Z" fill="#d8eeea" stroke="#d8eeea" fill-opacity="1" stroke-opacity="1"/><path d="M1297.056958694011,342.5391244981438L1324.6286882087588,528.2085744012147L1395.4942472465336,513.0590765085071Z" fill="#cee6e6" stroke="#cee6e6" fill-opacity="1" stroke-opacity="1"/><path d="M1297.056958694011,342.5391244981438L1395.4942472465336,513.0590765085071L1449.1694924980402,406.2028141412884Z" fill="#c8e2de" stroke="#c8e2de" fill-opacity="1" stroke-opacity="1"/><path d="M1449.1694924980402,406.2028141412884L1395.4942472465336,513.0590765085071L1524.8016678448766,543.6905415728688Z" fill="#bedae3" stroke="#bedae3" fill-opacity="1" stroke-opacity="1"/><path d="M1449.1694924980402,406.2028141412884L1524.8016678448766,543.6905415728688L1617.481921557337,366.03458994068205Z" fill="#b6d1d9" stroke="#b6d1d9" fill-opacity="1" stroke-opacity="1"/><path d="M1617.481921557337,366.03458994068205L1524.8016678448766,543.6905415728688L1722.339799515903,531.2127889785916Z" fill="#acc5d8" stroke="#acc5d8" fill-opacity="1" stroke-opacity="1"/><path d="M1617.481921557337,366.03458994068205L1722.339799515903,531.2127889785916L1705.526111992076,320.7700070925057Z" fill="#a5bec6" stroke="#a5bec6" fill-opacity="1" stroke-opacity="1"/><path d="M1705.526111992076,320.7700070925057L1722.339799515903,531.2127889785916L1895.1746234949678,386.3525961712003Z" fill="#9bb1c2" stroke="#9bb1c2" fill-opacity="1" stroke-opacity="1"/><path d="M1895.1746234949678,386.3525961712003L1722.339799515903,531.2127889785916L1896.9075766950846,525.2903765067458Z" fill="#94a9c9" stroke="#94a9c9" fill-opacity="1" stroke-opacity="1"/><path d="M1895.1746234949678,386.3525961712003L1896.9075766950846,525.2903765067458L2012.2998856846243,404.2261043563485Z" fill="#899cbd" stroke="#899cbd" fill-opacity="1" stroke-opacity="1"/><path d="M2012.2998856846243,404.2261043563485L1896.9075766950846,525.2903765067458L2054.3387305084616,579.7012561652809Z" fill="#8395c2" stroke="#8395c2" fill-opacity="1" stroke-opacity="1"/><path d="M-24.91057771258056,577.0559078268707L-100.03874737769365,717.0399564597756L26.767704784870148,730.1010149717331Z" fill="#c98e91" stroke="#c98e91" fill-opacity="1" stroke-opacity="1"/><path d="M-24.91057771258056,577.0559078268707L26.767704784870148,730.1010149717331L67.69205429591238,548.4651712048799Z" fill="#db9b95" stroke="#db9b95" fill-opacity="1" stroke-opacity="1"/><path d="M67.69205429591238,548.4651712048799L26.767704784870148,730.1010149717331L272.3639238718897,627.4838024005294Z" fill="#dea99b" stroke="#dea99b" fill-opacity="1" stroke-opacity="1"/><path d="M67.69205429591238,548.4651712048799L272.3639238718897,627.4838024005294L255.01138105988503,539.0253273490816Z" fill="#f2b4a0" stroke="#f2b4a0" fill-opacity="1" stroke-opacity="1"/><path d="M255.01138105988503,539.0253273490816L272.3639238718897,627.4838024005294L341.5231578424573,577.2603286709636Z" fill="#f2c2a7" stroke="#f2c2a7" fill-opacity="1" stroke-opacity="1"/><path d="M341.5231578424573,577.2603286709636L272.3639238718897,627.4838024005294L434.00102195329964,709.941107109189Z" fill="#e7cbab" stroke="#e7cbab" fill-opacity="1" stroke-opacity="1"/><path d="M341.5231578424573,577.2603286709636L434.00102195329964,709.941107109189L521.7832062207162,569.0796444565058Z" fill="#edd7b1" stroke="#edd7b1" fill-opacity="1" stroke-opacity="1"/><path d="M521.7832062207162,569.0796444565058L434.00102195329964,709.941107109189L500.1902814209461,693.8887604512274Z" fill="#e3ddb7" stroke="#e3ddb7" fill-opacity="1" stroke-opacity="1"/><path d="M521.7832062207162,569.0796444565058L500.1902814209461,693.8887604512274L692.9759851656854,722.646715035662Z" fill="#e2e6c0" stroke="#e2e6c0" fill-opacity="1" stroke-opacity="1"/><path d="M521.7832062207162,569.0796444565058L692.9759851656854,722.646715035662L706.0249245911837,567.5243785511702Z" fill="#edf0c8" stroke="#edf0c8" fill-opacity="1" stroke-opacity="1"/><path d="M706.0249245911837,567.5243785511702L692.9759851656854,722.646715035662L879.7965089790523,714.9277862347662Z" fill="#e1f5d4" stroke="#e1f5d4" fill-opacity="1" stroke-opacity="1"/><path d="M706.0249245911837,567.5243785511702L879.7965089790523,714.9277862347662L865.5385375767946,539.3389013037086Z" fill="#f0fddb" stroke="#f0fddb" fill-opacity="1" stroke-opacity="1"/><path d="M865.5385375767946,539.3389013037086L879.7965089790523,714.9277862347662L977.5011506024748,654.2086898814887Z" fill="#e6fee7" stroke="#e6fee7" fill-opacity="1" stroke-opacity="1"/><path d="M865.5385375767946,539.3389013037086L977.5011506024748,654.2086898814887L1025.924301110208,470.14692968688905Z" fill="#f5fced" stroke="#f5fced" fill-opacity="1" stroke-opacity="1"/><path d="M1025.924301110208,470.14692968688905L977.5011506024748,654.2086898814887L1155.3316168114543,492.48961980454624Z" fill="#f1faf9" stroke="#f1faf9" fill-opacity="1" stroke-opacity="1"/><path d="M1155.3316168114543,492.48961980454624L977.5011506024748,654.2086898814887L1137.0459916535765,698.3278751000762Z" fill="#dcf8fb" stroke="#dcf8fb" fill-opacity="1" stroke-opacity="1"/><path d="M1155.3316168114543,492.48961980454624L1137.0459916535765,698.3278751000762L1320.9930258616805,637.9365206044167Z" fill="#cff1f7" stroke="#cff1f7" fill-opacity="1" stroke-opacity="1"/><path d="M1155.3316168114543,492.48961980454624L1320.9930258616805,637.9365206044167L1324.6286882087588,528.2085744012147Z" fill="#d5edf5" stroke="#d5edf5" fill-opacity="1" stroke-opacity="1"/><path d="M1324.6286882087588,528.2085744012147L1320.9930258616805,637.9365206044167L1395.4942472465336,513.0590765085071Z" fill="#c9e5f0" stroke="#c9e5f0" fill-opacity="1" stroke-opacity="1"/><path d="M1395.4942472465336,513.0590765085071L1320.9930258616805,637.9365206044167L1460.263518858701,632.16581761837Z" fill="#bbe1ee" stroke="#bbe1ee" fill-opacity="1" stroke-opacity="1"/><path d="M1395.4942472465336,513.0590765085071L1460.263518858701,632.16581761837L1524.8016678448766,543.6905415728688Z" fill="#badaea" stroke="#badaea" fill-opacity="1" stroke-opacity="1"/><path d="M1524.8016678448766,543.6905415728688L1460.263518858701,632.16581761837L1624.9383076652884,689.8773747123778Z" fill="#a2d1e5" stroke="#a2d1e5" fill-opacity="1" stroke-opacity="1"/><path d="M1524.8016678448766,543.6905415728688L1624.9383076652884,689.8773747123778L1722.339799515903,531.2127889785916Z" fill="#a1c5df" stroke="#a1c5df" fill-opacity="1" stroke-opacity="1"/><path d="M1722.339799515903,531.2127889785916L1624.9383076652884,689.8773747123778L1688.909180033952,708.2435521110892Z" fill="#8ebedc" stroke="#8ebedc" fill-opacity="1" stroke-opacity="1"/><path d="M1722.339799515903,531.2127889785916L1688.909180033952,708.2435521110892L1887.311720252037,644.9295382574201Z" fill="#88b2d6" stroke="#88b2d6" fill-opacity="1" stroke-opacity="1"/><path d="M1722.339799515903,531.2127889785916L1887.311720252037,644.9295382574201L1896.9075766950846,525.2903765067458Z" fill="#8fa9d1" stroke="#8fa9d1" fill-opacity="1" stroke-opacity="1"/><path d="M1896.9075766950846,525.2903765067458L1887.311720252037,644.9295382574201L2054.3387305084616,579.7012561652809Z" fill="#7f9bc9" stroke="#7f9bc9" fill-opacity="1" stroke-opacity="1"/><path d="M2054.3387305084616,579.7012561652809L1887.311720252037,644.9295382574201L2030.2673330157995,671.0334538668394Z" fill="#6e95c6" stroke="#6e95c6" fill-opacity="1" stroke-opacity="1"/><path d="M2054.3387305084616,579.7012561652809L2030.2673330157995,671.0334538668394L2052.64306535013,872.8403465263546Z" fill="#5681c1" stroke="#5681c1" fill-opacity="1" stroke-opacity="1"/><path d="M-100.03874737769365,717.0399564597756L-70.86747955530882,1008.2613275013864L-82.15712713077664,849.9311691708863Z" fill="#92557c" stroke="#92557c" fill-opacity="1" stroke-opacity="1"/><path d="M-100.03874737769365,717.0399564597756L-82.15712713077664,849.9311691708863L26.767704784870148,730.1010149717331Z" fill="#ac768c" stroke="#ac768c" fill-opacity="1" stroke-opacity="1"/><path d="M26.767704784870148,730.1010149717331L-82.15712713077664,849.9311691708863L112.14382943697274,841.7021696548909Z" fill="#a6748a" stroke="#a6748a" fill-opacity="1" stroke-opacity="1"/><path d="M26.767704784870148,730.1010149717331L112.14382943697274,841.7021696548909L270.36813695915043,776.6175444703549Z" fill="#b58c96" stroke="#b58c96" fill-opacity="1" stroke-opacity="1"/><path d="M26.767704784870148,730.1010149717331L270.36813695915043,776.6175444703549L272.3639238718897,627.4838024005294Z" fill="#cda69e" stroke="#cda69e" fill-opacity="1" stroke-opacity="1"/><path d="M272.3639238718897,627.4838024005294L270.36813695915043,776.6175444703549L434.00102195329964,709.941107109189Z" fill="#d3bca8" stroke="#d3bca8" fill-opacity="1" stroke-opacity="1"/><path d="M434.00102195329964,709.941107109189L270.36813695915043,776.6175444703549L327.401846665889,825.1140399836004Z" fill="#c0afa6" stroke="#c0afa6" fill-opacity="1" stroke-opacity="1"/><path d="M434.00102195329964,709.941107109189L327.401846665889,825.1140399836004L562.90771859698,867.1287895180285Z" fill="#bab4a9" stroke="#bab4a9" fill-opacity="1" stroke-opacity="1"/><path d="M434.00102195329964,709.941107109189L562.90771859698,867.1287895180285L500.1902814209461,693.8887604512274Z" fill="#c5c8b5" stroke="#c5c8b5" fill-opacity="1" stroke-opacity="1"/><path d="M500.1902814209461,693.8887604512274L562.90771859698,867.1287895180285L690.3434295672923,765.2830641064793Z" fill="#c1ccbd" stroke="#c1ccbd" fill-opacity="1" stroke-opacity="1"/><path d="M500.1902814209461,693.8887604512274L690.3434295672923,765.2830641064793L692.9759851656854,722.646715035662Z" fill="#cfddc4" stroke="#cfddc4" fill-opacity="1" stroke-opacity="1"/><path d="M692.9759851656854,722.646715035662L690.3434295672923,765.2830641064793L879.7965089790523,714.9277862347662Z" fill="#cde6d2" stroke="#cde6d2" fill-opacity="1" stroke-opacity="1"/><path d="M879.7965089790523,714.9277862347662L690.3434295672923,765.2830641064793L778.6734568700194,882.4041027668864Z" fill="#bedad0" stroke="#bedad0" fill-opacity="1" stroke-opacity="1"/><path d="M879.7965089790523,714.9277862347662L778.6734568700194,882.4041027668864L994.1452438943088,870.140362624079Z" fill="#b3d3d7" stroke="#b3d3d7" fill-opacity="1" stroke-opacity="1"/><path d="M879.7965089790523,714.9277862347662L994.1452438943088,870.140362624079L977.5011506024748,654.2086898814887Z" fill="#c2e8ea" stroke="#c2e8ea" fill-opacity="1" stroke-opacity="1"/><path d="M977.5011506024748,654.2086898814887L994.1452438943088,870.140362624079L1094.9401466734707,800.1736748591065Z" fill="#b5def1" stroke="#b5def1" fill-opacity="1" stroke-opacity="1"/><path d="M977.5011506024748,654.2086898814887L1094.9401466734707,800.1736748591065L1137.0459916535765,698.3278751000762Z" fill="#c2ebfa" stroke="#c2ebfa" fill-opacity="1" stroke-opacity="1"/><path d="M1137.0459916535765,698.3278751000762L1094.9401466734707,800.1736748591065L1334.6340402401984,803.0338802095503Z" fill="#a5d7f3" stroke="#a5d7f3" fill-opacity="1" stroke-opacity="1"/><path d="M1137.0459916535765,698.3278751000762L1334.6340402401984,803.0338802095503L1320.9930258616805,637.9365206044167Z" fill="#abe0f3" stroke="#abe0f3" fill-opacity="1" stroke-opacity="1"/><path d="M1320.9930258616805,637.9365206044167L1334.6340402401984,803.0338802095503L1460.263518858701,632.16581761837Z" fill="#a4daee" stroke="#a4daee" fill-opacity="1" stroke-opacity="1"/><path d="M1460.263518858701,632.16581761837L1334.6340402401984,803.0338802095503L1452.385650537908,846.3488449528813Z" fill="#8ac6ea" stroke="#8ac6ea" fill-opacity="1" stroke-opacity="1"/><path d="M1460.263518858701,632.16581761837L1452.385650537908,846.3488449528813L1576.2396920844913,819.331660894677Z" fill="#7ebce5" stroke="#7ebce5" fill-opacity="1" stroke-opacity="1"/><path d="M1460.263518858701,632.16581761837L1576.2396920844913,819.331660894677L1624.9383076652884,689.8773747123778Z" fill="#87c0e3" stroke="#87c0e3" fill-opacity="1" stroke-opacity="1"/><path d="M1624.9383076652884,689.8773747123778L1576.2396920844913,819.331660894677L1688.909180033952,708.2435521110892Z" fill="#77b1dc" stroke="#77b1dc" fill-opacity="1" stroke-opacity="1"/><path d="M1688.909180033952,708.2435521110892L1576.2396920844913,819.331660894677L1713.4375228453428,867.4336565472186Z" fill="#639cd4" stroke="#639cd4" fill-opacity="1" stroke-opacity="1"/><path d="M1688.909180033952,708.2435521110892L1713.4375228453428,867.4336565472186L1824.1803059913218,882.8385987784714Z" fill="#558bcb" stroke="#558bcb" fill-opacity="1" stroke-opacity="1"/><path d="M1688.909180033952,708.2435521110892L1824.1803059913218,882.8385987784714L1887.311720252037,644.9295382574201Z" fill="#6299d1" stroke="#6299d1" fill-opacity="1" stroke-opacity="1"/><path d="M1887.311720252037,644.9295382574201L1824.1803059913218,882.8385987784714L2052.64306535013,872.8403465263546Z" fill="#467ac2" stroke="#467ac2" fill-opacity="1" stroke-opacity="1"/><path d="M1887.311720252037,644.9295382574201L2052.64306535013,872.8403465263546L2030.2673330157995,671.0334538668394Z" fill="#5284c4" stroke="#5284c4" fill-opacity="1" stroke-opacity="1"/><path d="M-82.15712713077664,849.9311691708863L-70.86747955530882,1008.2613275013864L73.11438166536391,978.3762034121901Z" fill="#7f4372" stroke="#7f4372" fill-opacity="1" stroke-opacity="1"/><path d="M-82.15712713077664,849.9311691708863L73.11438166536391,978.3762034121901L112.14382943697274,841.7021696548909Z" fill="#925d7f" stroke="#925d7f" fill-opacity="1" stroke-opacity="1"/><path d="M112.14382943697274,841.7021696548909L73.11438166536391,978.3762034121901L225.88771238923073,986.7598806135356Z" fill="#8d5d7e" stroke="#8d5d7e" fill-opacity="1" stroke-opacity="1"/><path d="M112.14382943697274,841.7021696548909L225.88771238923073,986.7598806135356L270.36813695915043,776.6175444703549Z" fill="#a37b8d" stroke="#a37b8d" fill-opacity="1" stroke-opacity="1"/><path d="M270.36813695915043,776.6175444703549L225.88771238923073,986.7598806135356L327.401846665889,825.1140399836004Z" fill="#a78893" stroke="#a78893" fill-opacity="1" stroke-opacity="1"/><path d="M327.401846665889,825.1140399836004L225.88771238923073,986.7598806135356L344.79066548869014,957.240248741582Z" fill="#98798b" stroke="#98798b" fill-opacity="1" stroke-opacity="1"/><path d="M327.401846665889,825.1140399836004L344.79066548869014,957.240248741582L562.90771859698,867.1287895180285Z" fill="#a49699" stroke="#a49699" fill-opacity="1" stroke-opacity="1"/><path d="M562.90771859698,867.1287895180285L344.79066548869014,957.240248741582L582.3424847703427,944.5082974992692Z" fill="#9a959c" stroke="#9a959c" fill-opacity="1" stroke-opacity="1"/><path d="M562.90771859698,867.1287895180285L582.3424847703427,944.5082974992692L677.2838729526848,946.4291113335639Z" fill="#9ca3a9" stroke="#9ca3a9" fill-opacity="1" stroke-opacity="1"/><path d="M562.90771859698,867.1287895180285L677.2838729526848,946.4291113335639L690.3434295672923,765.2830641064793Z" fill="#abbab6" stroke="#abbab6" fill-opacity="1" stroke-opacity="1"/><path d="M690.3434295672923,765.2830641064793L677.2838729526848,946.4291113335639L778.6734568700194,882.4041027668864Z" fill="#aabdbd" stroke="#aabdbd" fill-opacity="1" stroke-opacity="1"/><path d="M778.6734568700194,882.4041027668864L677.2838729526848,946.4291113335639L870.2793577127159,954.5093764364719Z" fill="#9aaeba" stroke="#9aaeba" fill-opacity="1" stroke-opacity="1"/><path d="M778.6734568700194,882.4041027668864L870.2793577127159,954.5093764364719L994.1452438943088,870.140362624079Z" fill="#9ebaca" stroke="#9ebaca" fill-opacity="1" stroke-opacity="1"/><path d="M994.1452438943088,870.140362624079L870.2793577127159,954.5093764364719L966.2255895417184,971.1492695566267Z" fill="#92b0ce" stroke="#92b0ce" fill-opacity="1" stroke-opacity="1"/><path d="M994.1452438943088,870.140362624079L966.2255895417184,971.1492695566267L1181.8359870370477,953.740924699232Z" fill="#8baddc" stroke="#8baddc" fill-opacity="1" stroke-opacity="1"/><path d="M994.1452438943088,870.140362624079L1181.8359870370477,953.740924699232L1094.9401466734707,800.1736748591065Z" fill="#95bce6" stroke="#95bce6" fill-opacity="1" stroke-opacity="1"/><path d="M1094.9401466734707,800.1736748591065L1181.8359870370477,953.740924699232L1334.6340402401984,803.0338802095503Z" fill="#8dbce6" stroke="#8dbce6" fill-opacity="1" stroke-opacity="1"/><path d="M1334.6340402401984,803.0338802095503L1181.8359870370477,953.740924699232L1256.7272895108908,1026.355870803818Z" fill="#73a2d8" stroke="#73a2d8" fill-opacity="1" stroke-opacity="1"/><path d="M1334.6340402401984,803.0338802095503L1256.7272895108908,1026.355870803818L1452.385650537908,846.3488449528813Z" fill="#70a5d9" stroke="#70a5d9" fill-opacity="1" stroke-opacity="1"/><path d="M1452.385650537908,846.3488449528813L1256.7272895108908,1026.355870803818L1457.3441936261952,1023.3927622530609Z" fill="#588acb" stroke="#588acb" fill-opacity="1" stroke-opacity="1"/><path d="M1452.385650537908,846.3488449528813L1457.3441936261952,1023.3927622530609L1571.5610646922141,1016.0204575303942Z" fill="#4c80c6" stroke="#4c80c6" fill-opacity="1" stroke-opacity="1"/><path d="M1452.385650537908,846.3488449528813L1571.5610646922141,1016.0204575303942L1576.2396920844913,819.331660894677Z" fill="#598fce" stroke="#598fce" fill-opacity="1" stroke-opacity="1"/><path d="M1576.2396920844913,819.331660894677L1571.5610646922141,1016.0204575303942L1713.4375228453428,867.4336565472186Z" fill="#4d82c7" stroke="#4d82c7" fill-opacity="1" stroke-opacity="1"/><path d="M1713.4375228453428,867.4336565472186L1571.5610646922141,1016.0204575303942L1766.2029457557946,1014.4848989881575Z" fill="#3666b8" stroke="#3666b8" fill-opacity="1" stroke-opacity="1"/><path d="M1713.4375228453428,867.4336565472186L1766.2029457557946,1014.4848989881575L1824.1803059913218,882.8385987784714Z" fill="#3868ba" stroke="#3868ba" fill-opacity="1" stroke-opacity="1"/><path d="M1824.1803059913218,882.8385987784714L1766.2029457557946,1014.4848989881575L1850.1234613079578,990.6357673555613Z" fill="#2856b0" stroke="#2856b0" fill-opacity="1" stroke-opacity="1"/><path d="M1824.1803059913218,882.8385987784714L1850.1234613079578,990.6357673555613L2052.64306535013,872.8403465263546Z" fill="#2a58b1" stroke="#2a58b1" fill-opacity="1" stroke-opacity="1"/><path d="M2052.64306535013,872.8403465263546L1850.1234613079578,990.6357673555613L2020.019523371011,1034.5240058843046Z" fill="#1640a5" stroke="#1640a5" fill-opacity="1" stroke-opacity="1"/><path d="M2052.64306535013,872.8403465263546L2020.019523371011,1034.5240058843046L2002.6653551403433,1129.0524644963443Z" fill="#052b9a" stroke="#052b9a" fill-opacity="1" stroke-opacity="1"/><path d="M-70.86747955530882,1008.2613275013864L-58.963911244645715,1117.5829664804041L34.35054961591959,1119.4607711210847Z" fill="#6a185c" stroke="#6a185c" fill-opacity="1" stroke-opacity="1"/><path d="M-70.86747955530882,1008.2613275013864L34.35054961591959,1119.4607711210847L73.11438166536391,978.3762034121901Z" fill="#6d2c66" stroke="#6d2c66" fill-opacity="1" stroke-opacity="1"/><path d="M73.11438166536391,978.3762034121901L34.35054961591959,1119.4607711210847L225.88771238923073,986.7598806135356Z" fill="#743d6e" stroke="#743d6e" fill-opacity="1" stroke-opacity="1"/><path d="M225.88771238923073,986.7598806135356L34.35054961591959,1119.4607711210847L263.8783485163003,1138.7483460456133Z" fill="#78366a" stroke="#78366a" fill-opacity="1" stroke-opacity="1"/><path d="M225.88771238923073,986.7598806135356L263.8783485163003,1138.7483460456133L331.7066995706409,1084.2224767059088Z" fill="#7c4873" stroke="#7c4873" fill-opacity="1" stroke-opacity="1"/><path d="M225.88771238923073,986.7598806135356L331.7066995706409,1084.2224767059088L344.79066548869014,957.240248741582Z" fill="#815f7d" stroke="#815f7d" fill-opacity="1" stroke-opacity="1"/><path d="M344.79066548869014,957.240248741582L331.7066995706409,1084.2224767059088L480.7951400242746,1086.5069356374443Z" fill="#7e627e" stroke="#7e627e" fill-opacity="1" stroke-opacity="1"/><path d="M344.79066548869014,957.240248741582L480.7951400242746,1086.5069356374443L582.3424847703427,944.5082974992692Z" fill="#877b8d" stroke="#877b8d" fill-opacity="1" stroke-opacity="1"/><path d="M582.3424847703427,944.5082974992692L480.7951400242746,1086.5069356374443L713.7423424143344,1173.604779196903Z" fill="#7f738f" stroke="#7f738f" fill-opacity="1" stroke-opacity="1"/><path d="M582.3424847703427,944.5082974992692L713.7423424143344,1173.604779196903L677.2838729526848,946.4291113335639Z" fill="#81899e" stroke="#81899e" fill-opacity="1" stroke-opacity="1"/><path d="M677.2838729526848,946.4291113335639L713.7423424143344,1173.604779196903L864.5723769441247,1114.7543751541525Z" fill="#807ea0" stroke="#807ea0" fill-opacity="1" stroke-opacity="1"/><path d="M677.2838729526848,946.4291113335639L864.5723769441247,1114.7543751541525L870.2793577127159,954.5093764364719Z" fill="#8698b1" stroke="#8698b1" fill-opacity="1" stroke-opacity="1"/><path d="M870.2793577127159,954.5093764364719L864.5723769441247,1114.7543751541525L966.2255895417184,971.1492695566267Z" fill="#8098bb" stroke="#8098bb" fill-opacity="1" stroke-opacity="1"/><path d="M966.2255895417184,971.1492695566267L864.5723769441247,1114.7543751541525L966.9690386485308,1148.3036675769836Z" fill="#7a83b5" stroke="#7a83b5" fill-opacity="1" stroke-opacity="1"/><path d="M966.2255895417184,971.1492695566267L966.9690386485308,1148.3036675769836L1176.972591681406,1131.1154901143163Z" fill="#727fc2" stroke="#727fc2" fill-opacity="1" stroke-opacity="1"/><path d="M966.2255895417184,971.1492695566267L1176.972591681406,1131.1154901143163L1181.8359870370477,953.740924699232Z" fill="#6e8fcf" stroke="#6e8fcf" fill-opacity="1" stroke-opacity="1"/><path d="M1181.8359870370477,953.740924699232L1176.972591681406,1131.1154901143163L1256.7272895108908,1026.355870803818Z" fill="#5f83c9" stroke="#5f83c9" fill-opacity="1" stroke-opacity="1"/><path d="M1256.7272895108908,1026.355870803818L1176.972591681406,1131.1154901143163L1305.3616732545197,1164.8303074389696Z" fill="#5a6fbc" stroke="#5a6fbc" fill-opacity="1" stroke-opacity="1"/><path d="M1256.7272895108908,1026.355870803818L1305.3616732545197,1164.8303074389696L1457.3441936261952,1023.3927622530609Z" fill="#4e6ebd" stroke="#4e6ebd" fill-opacity="1" stroke-opacity="1"/><path d="M1457.3441936261952,1023.3927622530609L1305.3616732545197,1164.8303074389696L1447.3680617753416,1132.8372682537884Z" fill="#4660b4" stroke="#4660b4" fill-opacity="1" stroke-opacity="1"/><path d="M1457.3441936261952,1023.3927622530609L1447.3680617753416,1132.8372682537884L1521.8969528283924,1089.9916710332036Z" fill="#3d5db4" stroke="#3d5db4" fill-opacity="1" stroke-opacity="1"/><path d="M1457.3441936261952,1023.3927622530609L1521.8969528283924,1089.9916710332036L1571.5610646922141,1016.0204575303942Z" fill="#3864b8" stroke="#3864b8" fill-opacity="1" stroke-opacity="1"/><path d="M1571.5610646922141,1016.0204575303942L1521.8969528283924,1089.9916710332036L1713.476264057681,1141.889449255541Z" fill="#2e4cac" stroke="#2e4cac" fill-opacity="1" stroke-opacity="1"/><path d="M1571.5610646922141,1016.0204575303942L1713.476264057681,1141.889449255541L1766.2029457557946,1014.4848989881575Z" fill="#254aaa" stroke="#254aaa" fill-opacity="1" stroke-opacity="1"/><path d="M1766.2029457557946,1014.4848989881575L1713.476264057681,1141.889449255541L1839.6035151276737,1119.7131256945431Z" fill="#1b339f" stroke="#1b339f" fill-opacity="1" stroke-opacity="1"/><path d="M1766.2029457557946,1014.4848989881575L1839.6035151276737,1119.7131256945431L1850.1234613079578,990.6357673555613Z" fill="#163da3" stroke="#163da3" fill-opacity="1" stroke-opacity="1"/><path d="M1850.1234613079578,990.6357673555613L1839.6035151276737,1119.7131256945431L2020.019523371011,1034.5240058843046Z" fill="#0d2f9c" stroke="#0d2f9c" fill-opacity="1" stroke-opacity="1"/><path d="M2020.019523371011,1034.5240058843046L1839.6035151276737,1119.7131256945431L2002.6653551403433,1129.0524644963443Z" fill="#071b92" stroke="#071b92" fill-opacity="1" stroke-opacity="1"/><path d="M-58.963911244645715,1117.5829664804041L713.7423424143344,1173.604779196903L263.8783485163003,1138.7483460456133Z" fill="#7c4569" stroke="#7c4569" fill-opacity="1" stroke-opacity="1"/><path d="M-58.963911244645715,1117.5829664804041L263.8783485163003,1138.7483460456133L34.35054961591959,1119.4607711210847Z" fill="#71245c" stroke="#71245c" fill-opacity="1" stroke-opacity="1"/><path d="M263.8783485163003,1138.7483460456133L713.7423424143344,1173.604779196903L480.7951400242746,1086.5069356374443Z" fill="#7f5e7a" stroke="#7f5e7a" fill-opacity="1" stroke-opacity="1"/><path d="M263.8783485163003,1138.7483460456133L480.7951400242746,1086.5069356374443L331.7066995706409,1084.2224767059088Z" fill="#7d4d73" stroke="#7d4d73" fill-opacity="1" stroke-opacity="1"/><path d="M713.7423424143344,1173.604779196903L1305.3616732545197,1164.8303074389696L966.9690386485308,1148.3036675769836Z" fill="#757cb1" stroke="#757cb1" fill-opacity="1" stroke-opacity="1"/><path d="M713.7423424143344,1173.604779196903L966.9690386485308,1148.3036675769836L864.5723769441247,1114.7543751541525Z" fill="#807fa0" stroke="#807fa0" fill-opacity="1" stroke-opacity="1"/><path d="M966.9690386485308,1148.3036675769836L1305.3616732545197,1164.8303074389696L1176.972591681406,1131.1154901143163Z" fill="#6675b9" stroke="#6675b9" fill-opacity="1" stroke-opacity="1"/><path d="M1305.3616732545197,1164.8303074389696L2002.6653551403433,1129.0524644963443L1713.476264057681,1141.889449255541Z" fill="#263f9d" stroke="#263f9d" fill-opacity="1" stroke-opacity="1"/><path d="M1305.3616732545197,1164.8303074389696L1713.476264057681,1141.889449255541L1447.3680617753416,1132.8372682537884Z" fill="#3b57aa" stroke="#3b57aa" fill-opacity="1" stroke-opacity="1"/><path d="M1447.3680617753416,1132.8372682537884L1713.476264057681,1141.889449255541L1521.8969528283924,1089.9916710332036Z" fill="#334ea8" stroke="#334ea8" fill-opacity="1" stroke-opacity="1"/><path d="M1713.476264057681,1141.889449255541L2002.6653551403433,1129.0524644963443L1839.6035151276737,1119.7131256945431Z" fill="#132893" stroke="#132893" fill-opacity="1" stroke-opacity="1"/></g></svg>